<?xml version="1.0" encoding="UTF-8" standalone="no"?>
<!DOCTYPE svg PUBLIC "-//W3C//DTD SVG 1.1//EN"
 "http://www.w3.org/Graphics/SVG/1.1/DTD/svg11.dtd">
<!-- Generated by graphviz version 2.36.0 (20140111.2315)
 -->
<!-- Title: player4 Pages: 1 -->
<svg width="1102pt" height="670pt"
 viewBox="0.00 0.00 1102.00 670.00" xmlns="http://www.w3.org/2000/svg" xmlns:xlink="http://www.w3.org/1999/xlink">
<g id="graph0" class="graph" transform="scale(1 1) rotate(0) translate(4 666)">
<title>player4</title>
<polygon fill="white" stroke="none" points="-4,4 -4,-666 1098,-666 1098,4 -4,4"/>
<!-- nodenode -->
<g id="node1" class="node"><title>nodenode</title>
<polygon fill="none" stroke="black" points="396,-662 369,-644 396,-626 423,-644 396,-662"/>
<text text-anchor="middle" x="396" y="-640.3" font-family="Times New Roman,serif" font-size="14.00">if</text>
</g>
<!-- nodenode1 -->
<g id="node2" class="node"><title>nodenode1</title>
<polygon fill="none" stroke="black" points="206,-574 152,-574 152,-538 206,-538 206,-574"/>
<text text-anchor="middle" x="179" y="-552.3" font-family="Times New Roman,serif" font-size="14.00">&amp;&amp;</text>
</g>
<!-- nodenode&#45;&gt;nodenode1 -->
<g id="edge5" class="edge"><title>nodenode&#45;&gt;nodenode1</title>
<path fill="none" stroke="black" d="M379.69,-636.536C345.018,-622.795 263.257,-590.392 215.478,-571.457"/>
<polygon fill="black" stroke="black" points="216.699,-568.176 206.113,-567.745 214.12,-574.683 216.699,-568.176"/>
<text text-anchor="middle" x="333.5" y="-596.3" font-family="Times New Roman,serif" font-size="14.00">condition</text>
</g>
<!-- nodenode2 -->
<g id="node7" class="node"><title>nodenode2</title>
<polygon fill="none" stroke="black" points="396,-574 369,-556 396,-538 423,-556 396,-574"/>
<text text-anchor="middle" x="396" y="-552.3" font-family="Times New Roman,serif" font-size="14.00">if</text>
</g>
<!-- nodenode&#45;&gt;nodenode2 -->
<g id="edge14" class="edge"><title>nodenode&#45;&gt;nodenode2</title>
<path fill="none" stroke="black" d="M396,-625.597C396,-613.746 396,-597.817 396,-584.292"/>
<polygon fill="black" stroke="black" points="399.5,-584.084 396,-574.084 392.5,-584.084 399.5,-584.084"/>
<text text-anchor="middle" x="408" y="-596.3" font-family="Times New Roman,serif" font-size="14.00">then</text>
</g>
<!-- nodenode3 -->
<g id="node16" class="node"><title>nodenode3</title>
<polygon fill="none" stroke="black" points="788,-574 761,-556 788,-538 815,-556 788,-574"/>
<text text-anchor="middle" x="788" y="-552.3" font-family="Times New Roman,serif" font-size="14.00">if</text>
</g>
<!-- nodenode&#45;&gt;nodenode3 -->
<g id="edge28" class="edge"><title>nodenode&#45;&gt;nodenode3</title>
<path fill="none" stroke="black" d="M415.439,-638.735C479.18,-624.751 682.127,-580.227 758.53,-563.465"/>
<polygon fill="black" stroke="black" points="759.426,-566.852 768.443,-561.29 757.926,-560.015 759.426,-566.852"/>
<text text-anchor="middle" x="639" y="-596.3" font-family="Times New Roman,serif" font-size="14.00">else</text>
</g>
<!-- nodenode11 -->
<g id="node3" class="node"><title>nodenode11</title>
<polygon fill="none" stroke="black" points="97,-440 43,-440 43,-404 97,-404 97,-440"/>
<text text-anchor="middle" x="70" y="-418.3" font-family="Times New Roman,serif" font-size="14.00">&amp;&amp;</text>
</g>
<!-- nodenode1&#45;&gt;nodenode11 -->
<g id="edge3" class="edge"><title>nodenode1&#45;&gt;nodenode11</title>
<path fill="none" stroke="black" d="M157.897,-537.995C142.386,-524.836 121.415,-505.603 106,-486 97.091,-474.67 88.9545,-460.884 82.6796,-449.099"/>
<polygon fill="black" stroke="black" points="85.7639,-447.444 78.0671,-440.163 79.5436,-450.655 85.7639,-447.444"/>
</g>
<!-- nodenode12 -->
<g id="node6" class="node"><title>nodenode12</title>
<ellipse fill="none" stroke="black" cx="179" cy="-422" rx="63.5411" ry="63.8893"/>
<text text-anchor="middle" x="179" y="-418.3" font-family="Times New Roman,serif" font-size="14.00">isEnemyAt 1 1</text>
</g>
<!-- nodenode1&#45;&gt;nodenode12 -->
<g id="edge4" class="edge"><title>nodenode1&#45;&gt;nodenode12</title>
<path fill="none" stroke="black" d="M179,-537.743C179,-526.737 179,-511.644 179,-496.02"/>
<polygon fill="black" stroke="black" points="182.5,-495.714 179,-485.714 175.5,-495.714 182.5,-495.714"/>
</g>
<!-- nodenode111 -->
<g id="node4" class="node"><title>nodenode111</title>
<ellipse fill="none" stroke="black" cx="30" cy="-260" rx="30.3206" ry="30.5947"/>
<text text-anchor="middle" x="30" y="-256.3" font-family="Times New Roman,serif" font-size="14.00">isTall</text>
</g>
<!-- nodenode11&#45;&gt;nodenode111 -->
<g id="edge1" class="edge"><title>nodenode11&#45;&gt;nodenode111</title>
<path fill="none" stroke="black" d="M65.7193,-403.877C59.5458,-379.183 47.9744,-332.897 39.6734,-299.694"/>
<polygon fill="black" stroke="black" points="43.0328,-298.7 37.2119,-289.847 36.2418,-300.398 43.0328,-298.7"/>
</g>
<!-- nodenode112 -->
<g id="node5" class="node"><title>nodenode112</title>
<ellipse fill="none" stroke="black" cx="109" cy="-260" rx="30.3206" ry="30.5947"/>
<text text-anchor="middle" x="109" y="-256.3" font-family="Times New Roman,serif" font-size="14.00">isTall</text>
</g>
<!-- nodenode11&#45;&gt;nodenode112 -->
<g id="edge2" class="edge"><title>nodenode11&#45;&gt;nodenode112</title>
<path fill="none" stroke="black" d="M74.1737,-403.877C80.1928,-379.183 91.475,-332.897 99.5684,-299.694"/>
<polygon fill="black" stroke="black" points="103.001,-300.392 101.968,-289.847 96.1998,-298.734 103.001,-300.392"/>
</g>
<!-- nodenode21 -->
<g id="node8" class="node"><title>nodenode21</title>
<ellipse fill="none" stroke="black" cx="306" cy="-422" rx="45.244" ry="45.4919"/>
<text text-anchor="middle" x="306" y="-418.3" font-family="Times New Roman,serif" font-size="14.00">canShoot</text>
</g>
<!-- nodenode2&#45;&gt;nodenode21 -->
<g id="edge6" class="edge"><title>nodenode2&#45;&gt;nodenode21</title>
<path fill="none" stroke="black" d="M379.853,-548.738C367.102,-543.028 349.727,-533.428 339,-520 329.073,-507.573 322.055,-491.994 317.124,-476.98"/>
<polygon fill="black" stroke="black" points="320.422,-475.793 314.176,-467.234 313.722,-477.819 320.422,-475.793"/>
<text text-anchor="middle" x="365.5" y="-508.3" font-family="Times New Roman,serif" font-size="14.00">condition</text>
</g>
<!-- nodenode22 -->
<g id="node9" class="node"><title>nodenode22</title>
<polygon fill="none" stroke="black" points="396,-440 369,-422 396,-404 423,-422 396,-440"/>
<text text-anchor="middle" x="396" y="-418.3" font-family="Times New Roman,serif" font-size="14.00">if</text>
</g>
<!-- nodenode2&#45;&gt;nodenode22 -->
<g id="edge10" class="edge"><title>nodenode2&#45;&gt;nodenode22</title>
<path fill="none" stroke="black" d="M396,-537.743C396,-515.509 396,-476.599 396,-450.325"/>
<polygon fill="black" stroke="black" points="399.5,-450.261 396,-440.261 392.5,-450.261 399.5,-450.261"/>
<text text-anchor="middle" x="408" y="-508.3" font-family="Times New Roman,serif" font-size="14.00">then</text>
</g>
<!-- nodenode23 -->
<g id="node13" class="node"><title>nodenode23</title>
<polygon fill="none" stroke="black" points="512,-440 458,-440 458,-404 512,-404 512,-440"/>
<text text-anchor="middle" x="485" y="-418.3" font-family="Times New Roman,serif" font-size="14.00">Sub</text>
</g>
<!-- nodenode2&#45;&gt;nodenode23 -->
<g id="edge13" class="edge"><title>nodenode2&#45;&gt;nodenode23</title>
<path fill="none" stroke="black" d="M405.412,-543.902C411.009,-537.141 418.138,-528.245 424,-520 440.619,-496.626 457.865,-468.815 469.762,-448.978"/>
<polygon fill="black" stroke="black" points="472.879,-450.585 474.988,-440.202 466.864,-447.003 472.879,-450.585"/>
<text text-anchor="middle" x="446" y="-508.3" font-family="Times New Roman,serif" font-size="14.00">else</text>
</g>
<!-- nodenode221 -->
<g id="node10" class="node"><title>nodenode221</title>
<ellipse fill="none" stroke="black" cx="238" cy="-260" rx="42.3456" ry="42.7926"/>
<text text-anchor="middle" x="238" y="-256.3" font-family="Times New Roman,serif" font-size="14.00">canJump</text>
</g>
<!-- nodenode22&#45;&gt;nodenode221 -->
<g id="edge7" class="edge"><title>nodenode22&#45;&gt;nodenode221</title>
<path fill="none" stroke="black" d="M391.488,-406.863C386.19,-392.501 376.033,-370.626 360,-358 337.458,-340.247 321.651,-356.246 298,-340 285.197,-331.205 273.968,-318.802 264.793,-306.425"/>
<polygon fill="black" stroke="black" points="267.404,-304.054 258.776,-297.905 261.686,-308.092 267.404,-304.054"/>
<text text-anchor="middle" x="324.5" y="-328.3" font-family="Times New Roman,serif" font-size="14.00">condition</text>
</g>
<!-- nodenode222 -->
<g id="node11" class="node"><title>nodenode222</title>
<ellipse fill="none" stroke="black" cx="326" cy="-260" rx="26.4705" ry="26.7961"/>
<text text-anchor="middle" x="326" y="-256.3" font-family="Times New Roman,serif" font-size="14.00">right</text>
</g>
<!-- nodenode22&#45;&gt;nodenode222 -->
<g id="edge8" class="edge"><title>nodenode22&#45;&gt;nodenode222</title>
<path fill="none" stroke="black" d="M390.152,-407.634C379.31,-382.85 355.796,-329.106 340.448,-294.025"/>
<polygon fill="black" stroke="black" points="343.568,-292.423 336.353,-284.664 337.155,-295.229 343.568,-292.423"/>
<text text-anchor="middle" x="371" y="-328.3" font-family="Times New Roman,serif" font-size="14.00">then</text>
</g>
<!-- nodenode223 -->
<g id="node12" class="node"><title>nodenode223</title>
<ellipse fill="none" stroke="black" cx="396" cy="-260" rx="25.0236" ry="25.1964"/>
<text text-anchor="middle" x="396" y="-256.3" font-family="Times New Roman,serif" font-size="14.00">wait</text>
</g>
<!-- nodenode22&#45;&gt;nodenode223 -->
<g id="edge9" class="edge"><title>nodenode22&#45;&gt;nodenode223</title>
<path fill="none" stroke="black" d="M396,-403.877C396,-378.199 396,-329.172 396,-295.786"/>
<polygon fill="black" stroke="black" points="399.5,-295.546 396,-285.546 392.5,-295.546 399.5,-295.546"/>
<text text-anchor="middle" x="407" y="-328.3" font-family="Times New Roman,serif" font-size="14.00">else</text>
</g>
<!-- nodenode231 -->
<g id="node14" class="node"><title>nodenode231</title>
<ellipse fill="none" stroke="black" cx="485" cy="-260" rx="46.2191" ry="46.2923"/>
<text text-anchor="middle" x="485" y="-256.3" font-family="Times New Roman,serif" font-size="14.00">longJump</text>
</g>
<!-- nodenode23&#45;&gt;nodenode231 -->
<g id="edge11" class="edge"><title>nodenode23&#45;&gt;nodenode231</title>
<path fill="none" stroke="black" d="M485,-403.877C485,-383.163 485,-347.254 485,-316.619"/>
<polygon fill="black" stroke="black" points="488.5,-316.462 485,-306.462 481.5,-316.462 488.5,-316.462"/>
</g>
<!-- nodenode232 -->
<g id="node15" class="node"><title>nodenode232</title>
<ellipse fill="none" stroke="black" cx="571" cy="-260" rx="22.1473" ry="22.1965"/>
<text text-anchor="middle" x="571" y="-256.3" font-family="Times New Roman,serif" font-size="14.00">left</text>
</g>
<!-- nodenode23&#45;&gt;nodenode232 -->
<g id="edge12" class="edge"><title>nodenode23&#45;&gt;nodenode232</title>
<path fill="none" stroke="black" d="M494.204,-403.877C508.993,-376.362 538.191,-322.039 556.016,-288.877"/>
<polygon fill="black" stroke="black" points="559.286,-290.187 560.937,-279.721 553.12,-286.872 559.286,-290.187"/>
</g>
<!-- nodenode31 -->
<g id="node17" class="node"><title>nodenode31</title>
<polygon fill="none" stroke="black" points="777,-440 723,-440 723,-404 777,-404 777,-440"/>
<text text-anchor="middle" x="750" y="-418.3" font-family="Times New Roman,serif" font-size="14.00">&amp;&amp;</text>
</g>
<!-- nodenode3&#45;&gt;nodenode31 -->
<g id="edge17" class="edge"><title>nodenode3&#45;&gt;nodenode31</title>
<path fill="none" stroke="black" d="M774.776,-546.674C766.254,-540.479 755.883,-531.183 751,-520 741.402,-498.021 742.173,-470.479 744.747,-450.364"/>
<polygon fill="black" stroke="black" points="748.232,-450.724 746.259,-440.314 741.31,-449.682 748.232,-450.724"/>
<text text-anchor="middle" x="777.5" y="-508.3" font-family="Times New Roman,serif" font-size="14.00">condition</text>
</g>
<!-- nodenode32 -->
<g id="node20" class="node"><title>nodenode32</title>
<polygon fill="none" stroke="black" points="853,-440 799,-440 799,-404 853,-404 853,-440"/>
<text text-anchor="middle" x="826" y="-418.3" font-family="Times New Roman,serif" font-size="14.00">Sub</text>
</g>
<!-- nodenode3&#45;&gt;nodenode32 -->
<g id="edge24" class="edge"><title>nodenode3&#45;&gt;nodenode32</title>
<path fill="none" stroke="black" d="M794.576,-542.292C797.757,-535.761 801.433,-527.595 804,-520 811.79,-496.949 817.67,-469.887 821.382,-450.212"/>
<polygon fill="black" stroke="black" points="824.872,-450.579 823.22,-440.114 817.986,-449.326 824.872,-450.579"/>
<text text-anchor="middle" x="821" y="-508.3" font-family="Times New Roman,serif" font-size="14.00">then</text>
</g>
<!-- nodenode33 -->
<g id="node27" class="node"><title>nodenode33</title>
<polygon fill="none" stroke="black" points="1013,-440 959,-440 959,-404 1013,-404 1013,-440"/>
<text text-anchor="middle" x="986" y="-418.3" font-family="Times New Roman,serif" font-size="14.00">Sub</text>
</g>
<!-- nodenode3&#45;&gt;nodenode33 -->
<g id="edge27" class="edge"><title>nodenode3&#45;&gt;nodenode33</title>
<path fill="none" stroke="black" d="M800.991,-546.339C831.238,-526.175 907.175,-475.55 951.796,-445.803"/>
<polygon fill="black" stroke="black" points="953.901,-448.606 960.28,-440.147 950.018,-442.782 953.901,-448.606"/>
<text text-anchor="middle" x="875" y="-508.3" font-family="Times New Roman,serif" font-size="14.00">else</text>
</g>
<!-- nodenode311 -->
<g id="node18" class="node"><title>nodenode311</title>
<ellipse fill="none" stroke="black" cx="657" cy="-260" rx="45.244" ry="45.4919"/>
<text text-anchor="middle" x="657" y="-256.3" font-family="Times New Roman,serif" font-size="14.00">canShoot</text>
</g>
<!-- nodenode31&#45;&gt;nodenode311 -->
<g id="edge15" class="edge"><title>nodenode31&#45;&gt;nodenode311</title>
<path fill="none" stroke="black" d="M740.047,-403.877C726.941,-381.329 703.37,-340.776 684.679,-308.62"/>
<polygon fill="black" stroke="black" points="687.601,-306.682 679.55,-299.795 681.549,-310.2 687.601,-306.682"/>
</g>
<!-- nodenode312 -->
<g id="node19" class="node"><title>nodenode312</title>
<ellipse fill="none" stroke="black" cx="751" cy="-260" rx="30.3206" ry="30.5947"/>
<text text-anchor="middle" x="751" y="-256.3" font-family="Times New Roman,serif" font-size="14.00">isTall</text>
</g>
<!-- nodenode31&#45;&gt;nodenode312 -->
<g id="edge16" class="edge"><title>nodenode31&#45;&gt;nodenode312</title>
<path fill="none" stroke="black" d="M750.107,-403.877C750.259,-379.508 750.543,-334.111 750.75,-301.01"/>
<polygon fill="black" stroke="black" points="754.251,-300.759 750.814,-290.737 747.252,-300.715 754.251,-300.759"/>
</g>
<!-- nodenode321 -->
<g id="node21" class="node"><title>nodenode321</title>
<ellipse fill="none" stroke="black" cx="825" cy="-260" rx="25.0236" ry="25.1964"/>
<text text-anchor="middle" x="825" y="-256.3" font-family="Times New Roman,serif" font-size="14.00">wait</text>
</g>
<!-- nodenode32&#45;&gt;nodenode321 -->
<g id="edge18" class="edge"><title>nodenode32&#45;&gt;nodenode321</title>
<path fill="none" stroke="black" d="M825.893,-403.877C825.732,-378.199 825.426,-329.172 825.217,-295.786"/>
<polygon fill="black" stroke="black" points="828.716,-295.524 825.153,-285.546 821.716,-295.567 828.716,-295.524"/>
</g>
<!-- nodenode322 -->
<g id="node22" class="node"><title>nodenode322</title>
<polygon fill="none" stroke="black" points="922,-278 868,-278 868,-242 922,-242 922,-278"/>
<text text-anchor="middle" x="895" y="-256.3" font-family="Times New Roman,serif" font-size="14.00">Sub</text>
</g>
<!-- nodenode32&#45;&gt;nodenode322 -->
<g id="edge23" class="edge"><title>nodenode32&#45;&gt;nodenode322</title>
<path fill="none" stroke="black" d="M833.384,-403.877C845.357,-376.115 869.099,-321.061 883.361,-287.988"/>
<polygon fill="black" stroke="black" points="886.714,-289.053 887.46,-278.485 880.286,-286.281 886.714,-289.053"/>
</g>
<!-- nodenode3221 -->
<g id="node23" class="node"><title>nodenode3221</title>
<ellipse fill="none" stroke="black" cx="861" cy="-153" rx="22.6206" ry="22.9987"/>
<text text-anchor="middle" x="861" y="-149.3" font-family="Times New Roman,serif" font-size="14.00">run</text>
</g>
<!-- nodenode322&#45;&gt;nodenode3221 -->
<g id="edge19" class="edge"><title>nodenode322&#45;&gt;nodenode3221</title>
<path fill="none" stroke="black" d="M889.386,-241.661C884.365,-226.158 876.894,-203.083 870.876,-184.499"/>
<polygon fill="black" stroke="black" points="874.205,-183.42 867.795,-174.984 867.546,-185.576 874.205,-183.42"/>
</g>
<!-- nodenode3222 -->
<g id="node24" class="node"><title>nodenode3222</title>
<polygon fill="none" stroke="black" points="956,-171 902,-171 902,-135 956,-135 956,-171"/>
<text text-anchor="middle" x="929" y="-149.3" font-family="Times New Roman,serif" font-size="14.00">Sub</text>
</g>
<!-- nodenode322&#45;&gt;nodenode3222 -->
<g id="edge22" class="edge"><title>nodenode322&#45;&gt;nodenode3222</title>
<path fill="none" stroke="black" d="M900.614,-241.661C905.986,-225.072 914.165,-199.813 920.366,-180.663"/>
<polygon fill="black" stroke="black" points="923.739,-181.608 923.49,-171.016 917.08,-179.451 923.739,-181.608"/>
</g>
<!-- nodenode32221 -->
<g id="node25" class="node"><title>nodenode32221</title>
<ellipse fill="none" stroke="black" cx="883" cy="-46" rx="26.4705" ry="26.7961"/>
<text text-anchor="middle" x="883" y="-42.3" font-family="Times New Roman,serif" font-size="14.00">right</text>
</g>
<!-- nodenode3222&#45;&gt;nodenode32221 -->
<g id="edge20" class="edge"><title>nodenode3222&#45;&gt;nodenode32221</title>
<path fill="none" stroke="black" d="M921.404,-134.661C914.945,-119.917 905.486,-98.3259 897.572,-80.2612"/>
<polygon fill="black" stroke="black" points="900.581,-78.4091 893.363,-70.654 894.17,-81.2181 900.581,-78.4091"/>
</g>
<!-- nodenode32222 -->
<g id="node26" class="node"><title>nodenode32222</title>
<ellipse fill="none" stroke="black" cx="974" cy="-46" rx="46.2191" ry="46.2923"/>
<text text-anchor="middle" x="974" y="-42.3" font-family="Times New Roman,serif" font-size="14.00">longJump</text>
</g>
<!-- nodenode3222&#45;&gt;nodenode32222 -->
<g id="edge21" class="edge"><title>nodenode3222&#45;&gt;nodenode32222</title>
<path fill="none" stroke="black" d="M936.431,-134.661C940.73,-124.631 946.387,-111.431 952.002,-98.329"/>
<polygon fill="black" stroke="black" points="955.341,-99.4226 956.063,-88.8524 948.907,-96.6651 955.341,-99.4226"/>
</g>
<!-- nodenode331 -->
<g id="node28" class="node"><title>nodenode331</title>
<ellipse fill="none" stroke="black" cx="986" cy="-260" rx="46.2191" ry="46.2923"/>
<text text-anchor="middle" x="986" y="-256.3" font-family="Times New Roman,serif" font-size="14.00">longJump</text>
</g>
<!-- nodenode33&#45;&gt;nodenode331 -->
<g id="edge25" class="edge"><title>nodenode33&#45;&gt;nodenode331</title>
<path fill="none" stroke="black" d="M986,-403.877C986,-383.163 986,-347.254 986,-316.619"/>
<polygon fill="black" stroke="black" points="989.5,-316.462 986,-306.462 982.5,-316.462 989.5,-316.462"/>
</g>
<!-- nodenode332 -->
<g id="node29" class="node"><title>nodenode332</title>
<ellipse fill="none" stroke="black" cx="1072" cy="-260" rx="22.1473" ry="22.1965"/>
<text text-anchor="middle" x="1072" y="-256.3" font-family="Times New Roman,serif" font-size="14.00">left</text>
</g>
<!-- nodenode33&#45;&gt;nodenode332 -->
<g id="edge26" class="edge"><title>nodenode33&#45;&gt;nodenode332</title>
<path fill="none" stroke="black" d="M995.204,-403.877C1009.99,-376.362 1039.19,-322.039 1057.02,-288.877"/>
<polygon fill="black" stroke="black" points="1060.29,-290.187 1061.94,-279.721 1054.12,-286.872 1060.29,-290.187"/>
</g>
</g>
</svg>
