<?xml version="1.0" encoding="UTF-8" standalone="no"?>
<!-- Generated by graphviz version 2.36.0 (20140111.2315)
 -->

<!-- Title: player4 Pages: 1 -->

<svg
   xmlns:dc="http://purl.org/dc/elements/1.1/"
   xmlns:cc="http://creativecommons.org/ns#"
   xmlns:rdf="http://www.w3.org/1999/02/22-rdf-syntax-ns#"
   xmlns:svg="http://www.w3.org/2000/svg"
   xmlns="http://www.w3.org/2000/svg"
   xmlns:sodipodi="http://sodipodi.sourceforge.net/DTD/sodipodi-0.dtd"
   xmlns:inkscape="http://www.inkscape.org/namespaces/inkscape"
   width="1102pt"
   height="670pt"
   viewBox="0.00 0.00 1102.00 670.00"
   id="svg2"
   version="1.1"
   inkscape:version="0.48.4 r9939"
   sodipodi:docname="evolvedplan-gama-s1player4-color.svg">
  <metadata
     id="metadata436">
    <rdf:RDF>
      <cc:Work
         rdf:about="">
        <dc:format>image/svg+xml</dc:format>
        <dc:type
           rdf:resource="http://purl.org/dc/dcmitype/StillImage" />
        <dc:title></dc:title>
      </cc:Work>
    </rdf:RDF>
  </metadata>
  <defs
     id="defs434" />
  <sodipodi:namedview
     pagecolor="#ffffff"
     bordercolor="#666666"
     borderopacity="1"
     objecttolerance="10"
     gridtolerance="10"
     guidetolerance="10"
     inkscape:pageopacity="0"
     inkscape:pageshadow="2"
     inkscape:window-width="1366"
     inkscape:window-height="746"
     id="namedview432"
     showgrid="false"
     inkscape:zoom="0.58724512"
     inkscape:cx="624.57578"
     inkscape:cy="440.11815"
     inkscape:window-x="-8"
     inkscape:window-y="-8"
     inkscape:window-maximized="1"
     inkscape:current-layer="node28" />
  <g
     id="graph0"
     class="graph"
     transform="scale(1 1) rotate(0) translate(4 666)">
    <title
       id="title5">player4</title>
    <polygon
       fill="white"
       stroke="none"
       points="-4,4 -4,-666 1098,-666 1098,4 -4,4"
       id="polygon7" />
    <!-- nodenode -->
    <g
       id="node1"
       class="node">
      <title
         id="title10">nodenode</title>
      <polygon
         fill="none"
         stroke="black"
         points="396,-662 369,-644 396,-626 423,-644 396,-662"
         id="polygon12" />
      <text
         text-anchor="middle"
         x="396"
         y="-640.3"
         font-family="Times New Roman,serif"
         font-size="14.00"
         id="text14">if</text>
    </g>
    <!-- nodenode1 -->
    <g
       id="node2"
       class="node">
      <title
         id="title17">nodenode1</title>
      <polygon
         fill="none"
         stroke="black"
         points="206,-574 152,-574 152,-538 206,-538 206,-574"
         id="polygon19" />
      <text
         text-anchor="middle"
         x="179"
         y="-552.3"
         font-family="Times New Roman,serif"
         font-size="14.00"
         id="text21">&amp;&amp;</text>
    </g>
    <!-- nodenode&#45;&gt;nodenode1 -->
    <g
       id="edge5"
       class="edge">
      <title
         id="title24">nodenode-&gt;nodenode1</title>
      <path
         fill="none"
         stroke="black"
         d="M379.69,-636.536C345.018,-622.795 263.257,-590.392 215.478,-571.457"
         id="path26" />
      <polygon
         fill="black"
         stroke="black"
         points="216.699,-568.176 206.113,-567.745 214.12,-574.683 216.699,-568.176"
         id="polygon28" />
      <text
         text-anchor="middle"
         x="333.5"
         y="-596.3"
         font-family="Times New Roman,serif"
         font-size="14.00"
         id="text30">condition</text>
    </g>
    <!-- nodenode2 -->
    <g
       id="node7"
       class="node">
      <title
         id="title33">nodenode2</title>
      <polygon
         fill="none"
         stroke="black"
         points="396,-574 369,-556 396,-538 423,-556 396,-574"
         id="polygon35" />
      <text
         text-anchor="middle"
         x="396"
         y="-552.3"
         font-family="Times New Roman,serif"
         font-size="14.00"
         id="text37">if</text>
    </g>
    <!-- nodenode&#45;&gt;nodenode2 -->
    <g
       id="edge14"
       class="edge">
      <title
         id="title40">nodenode-&gt;nodenode2</title>
      <path
         fill="none"
         stroke="black"
         d="M396,-625.597C396,-613.746 396,-597.817 396,-584.292"
         id="path42" />
      <polygon
         fill="black"
         stroke="black"
         points="399.5,-584.084 396,-574.084 392.5,-584.084 399.5,-584.084"
         id="polygon44" />
      <text
         text-anchor="middle"
         x="408"
         y="-596.3"
         font-family="Times New Roman,serif"
         font-size="14.00"
         id="text46">then</text>
    </g>
    <!-- nodenode3 -->
    <g
       id="node16"
       class="node">
      <title
         id="title49">nodenode3</title>
      <polygon
         fill="none"
         stroke="black"
         points="788,-574 761,-556 788,-538 815,-556 788,-574"
         id="polygon51" />
      <text
         text-anchor="middle"
         x="788"
         y="-552.3"
         font-family="Times New Roman,serif"
         font-size="14.00"
         id="text53">if</text>
    </g>
    <!-- nodenode&#45;&gt;nodenode3 -->
    <g
       id="edge28"
       class="edge">
      <title
         id="title56">nodenode-&gt;nodenode3</title>
      <path
         fill="none"
         stroke="black"
         d="M415.439,-638.735C479.18,-624.751 682.127,-580.227 758.53,-563.465"
         id="path58" />
      <polygon
         fill="black"
         stroke="black"
         points="759.426,-566.852 768.443,-561.29 757.926,-560.015 759.426,-566.852"
         id="polygon60" />
      <text
         text-anchor="middle"
         x="639"
         y="-596.3"
         font-family="Times New Roman,serif"
         font-size="14.00"
         id="text62">else</text>
    </g>
    <!-- nodenode11 -->
    <g
       id="node3"
       class="node">
      <title
         id="title65">nodenode11</title>
      <polygon
         fill="none"
         stroke="black"
         points="97,-440 43,-440 43,-404 97,-404 97,-440"
         id="polygon67" />
      <text
         text-anchor="middle"
         x="70"
         y="-418.3"
         font-family="Times New Roman,serif"
         font-size="14.00"
         id="text69">&amp;&amp;</text>
    </g>
    <!-- nodenode1&#45;&gt;nodenode11 -->
    <g
       id="edge3"
       class="edge">
      <title
         id="title72">nodenode1-&gt;nodenode11</title>
      <path
         fill="none"
         stroke="black"
         d="M157.897,-537.995C142.386,-524.836 121.415,-505.603 106,-486 97.091,-474.67 88.9545,-460.884 82.6796,-449.099"
         id="path74" />
      <polygon
         fill="black"
         stroke="black"
         points="85.7639,-447.444 78.0671,-440.163 79.5436,-450.655 85.7639,-447.444"
         id="polygon76" />
    </g>
    <!-- nodenode12 -->
    <g
       id="node6"
       class="node">
      <title
         id="title79">nodenode12</title>
      <ellipse
         fill="none"
         stroke="black"
         cx="179"
         cy="-422"
         rx="63.5411"
         ry="63.8893"
         id="ellipse81"
         d="m 242.5411,-422 c 0,35.28509 -28.44832,63.8893 -63.5411,63.8893 -35.09278,0 -63.5411,-28.60421 -63.5411,-63.8893 0,-35.28509 28.44832,-63.8893 63.5411,-63.8893 35.09278,0 63.5411,28.60421 63.5411,63.8893 z"
         style="fill:#ffaaaa;fill-opacity:1" />
      <text
         text-anchor="middle"
         x="179"
         y="-418.3"
         font-family="Times New Roman,serif"
         font-size="14.00"
         id="text83">isEnemyAt 1 1</text>
    </g>
    <!-- nodenode1&#45;&gt;nodenode12 -->
    <g
       id="edge4"
       class="edge">
      <title
         id="title86">nodenode1-&gt;nodenode12</title>
      <path
         fill="none"
         stroke="black"
         d="M179,-537.743C179,-526.737 179,-511.644 179,-496.02"
         id="path88" />
      <polygon
         fill="black"
         stroke="black"
         points="182.5,-495.714 179,-485.714 175.5,-495.714 182.5,-495.714"
         id="polygon90" />
    </g>
    <!-- nodenode111 -->
    <g
       id="node4"
       class="node">
      <title
         id="title93">nodenode111</title>
      <ellipse
         fill="none"
         stroke="black"
         cx="30"
         cy="-260"
         rx="30.3206"
         ry="30.5947"
         id="ellipse95"
         d="m 60.320601,-260 c 0,16.89699 -13.574996,30.5947 -30.320601,30.5947 -16.745605,0 -30.32060051,-13.69771 -30.32060051,-30.5947 0,-16.89699 13.57499551,-30.5947 30.32060051,-30.5947 16.745605,0 30.320601,13.69771 30.320601,30.5947 z"
         style="fill:#ffaaaa;fill-opacity:1" />
      <text
         text-anchor="middle"
         x="30"
         y="-256.3"
         font-family="Times New Roman,serif"
         font-size="14.00"
         id="text97">isTall</text>
    </g>
    <!-- nodenode11&#45;&gt;nodenode111 -->
    <g
       id="edge1"
       class="edge">
      <title
         id="title100">nodenode11-&gt;nodenode111</title>
      <path
         fill="none"
         stroke="black"
         d="M65.7193,-403.877C59.5458,-379.183 47.9744,-332.897 39.6734,-299.694"
         id="path102" />
      <polygon
         fill="black"
         stroke="black"
         points="43.0328,-298.7 37.2119,-289.847 36.2418,-300.398 43.0328,-298.7"
         id="polygon104" />
    </g>
    <!-- nodenode112 -->
    <g
       id="node5"
       class="node">
      <title
         id="title107">nodenode112</title>
      <ellipse
         fill="none"
         stroke="black"
         cx="109"
         cy="-260"
         rx="30.3206"
         ry="30.5947"
         id="ellipse109"
         d="m 139.3206,-260 c 0,16.89699 -13.57499,30.5947 -30.3206,30.5947 -16.745605,0 -30.320601,-13.69771 -30.320601,-30.5947 0,-16.89699 13.574996,-30.5947 30.320601,-30.5947 16.74561,0 30.3206,13.69771 30.3206,30.5947 z"
         style="fill:#ffaaaa;fill-opacity:1" />
      <text
         text-anchor="middle"
         x="109"
         y="-256.3"
         font-family="Times New Roman,serif"
         font-size="14.00"
         id="text111">isTall</text>
    </g>
    <!-- nodenode11&#45;&gt;nodenode112 -->
    <g
       id="edge2"
       class="edge">
      <title
         id="title114">nodenode11-&gt;nodenode112</title>
      <path
         fill="none"
         stroke="black"
         d="M74.1737,-403.877C80.1928,-379.183 91.475,-332.897 99.5684,-299.694"
         id="path116" />
      <polygon
         fill="black"
         stroke="black"
         points="103.001,-300.392 101.968,-289.847 96.1998,-298.734 103.001,-300.392"
         id="polygon118" />
    </g>
    <!-- nodenode21 -->
    <g
       id="node8"
       class="node">
      <title
         id="title121">nodenode21</title>
      <ellipse
         fill="none"
         stroke="black"
         cx="306"
         cy="-422"
         rx="45.244"
         ry="45.4919"
         id="ellipse123"
         d="m 351.244,-422 c 0,25.12448 -20.25643,45.4919 -45.244,45.4919 -24.98757,0 -45.244,-20.36742 -45.244,-45.4919 0,-25.12448 20.25643,-45.4919 45.244,-45.4919 24.98757,0 45.244,20.36742 45.244,45.4919 z"
         style="fill:#ffaaaa;fill-opacity:1" />
      <text
         text-anchor="middle"
         x="306"
         y="-418.3"
         font-family="Times New Roman,serif"
         font-size="14.00"
         id="text125">canShoot</text>
    </g>
    <!-- nodenode2&#45;&gt;nodenode21 -->
    <g
       id="edge6"
       class="edge">
      <title
         id="title128">nodenode2-&gt;nodenode21</title>
      <path
         fill="none"
         stroke="black"
         d="M379.853,-548.738C367.102,-543.028 349.727,-533.428 339,-520 329.073,-507.573 322.055,-491.994 317.124,-476.98"
         id="path130" />
      <polygon
         fill="black"
         stroke="black"
         points="320.422,-475.793 314.176,-467.234 313.722,-477.819 320.422,-475.793"
         id="polygon132" />
      <text
         text-anchor="middle"
         x="365.5"
         y="-508.3"
         font-family="Times New Roman,serif"
         font-size="14.00"
         id="text134">condition</text>
    </g>
    <!-- nodenode22 -->
    <g
       id="node9"
       class="node">
      <title
         id="title137">nodenode22</title>
      <polygon
         fill="none"
         stroke="black"
         points="396,-440 369,-422 396,-404 423,-422 396,-440"
         id="polygon139" />
      <text
         text-anchor="middle"
         x="396"
         y="-418.3"
         font-family="Times New Roman,serif"
         font-size="14.00"
         id="text141">if</text>
    </g>
    <!-- nodenode2&#45;&gt;nodenode22 -->
    <g
       id="edge10"
       class="edge">
      <title
         id="title144">nodenode2-&gt;nodenode22</title>
      <path
         fill="none"
         stroke="black"
         d="M396,-537.743C396,-515.509 396,-476.599 396,-450.325"
         id="path146" />
      <polygon
         fill="black"
         stroke="black"
         points="399.5,-450.261 396,-440.261 392.5,-450.261 399.5,-450.261"
         id="polygon148" />
      <text
         text-anchor="middle"
         x="408"
         y="-508.3"
         font-family="Times New Roman,serif"
         font-size="14.00"
         id="text150">then</text>
    </g>
    <!-- nodenode23 -->
    <g
       id="node13"
       class="node">
      <title
         id="title153">nodenode23</title>
      <polygon
         fill="none"
         stroke="black"
         points="512,-440 458,-440 458,-404 512,-404 512,-440"
         id="polygon155" />
      <text
         text-anchor="middle"
         x="485"
         y="-418.3"
         font-family="Times New Roman,serif"
         font-size="14.00"
         id="text157">Sub</text>
    </g>
    <!-- nodenode2&#45;&gt;nodenode23 -->
    <g
       id="edge13"
       class="edge">
      <title
         id="title160">nodenode2-&gt;nodenode23</title>
      <path
         fill="none"
         stroke="black"
         d="M405.412,-543.902C411.009,-537.141 418.138,-528.245 424,-520 440.619,-496.626 457.865,-468.815 469.762,-448.978"
         id="path162" />
      <polygon
         fill="black"
         stroke="black"
         points="472.879,-450.585 474.988,-440.202 466.864,-447.003 472.879,-450.585"
         id="polygon164" />
      <text
         text-anchor="middle"
         x="446"
         y="-508.3"
         font-family="Times New Roman,serif"
         font-size="14.00"
         id="text166">else</text>
    </g>
    <!-- nodenode221 -->
    <g
       id="node10"
       class="node">
      <title
         id="title169">nodenode221</title>
      <ellipse
         fill="none"
         stroke="black"
         cx="238"
         cy="-260"
         rx="42.3456"
         ry="42.7926"
         id="ellipse171"
         d="m 280.3456,-260 c 0,23.6337 -18.95877,42.7926 -42.3456,42.7926 -23.38683,0 -42.3456,-19.1589 -42.3456,-42.7926 0,-23.6337 18.95877,-42.7926 42.3456,-42.7926 23.38683,0 42.3456,19.1589 42.3456,42.7926 z"
         style="fill:#ffaaaa;fill-opacity:1" />
      <text
         text-anchor="middle"
         x="238"
         y="-256.3"
         font-family="Times New Roman,serif"
         font-size="14.00"
         id="text173">canJump</text>
    </g>
    <!-- nodenode22&#45;&gt;nodenode221 -->
    <g
       id="edge7"
       class="edge">
      <title
         id="title176">nodenode22-&gt;nodenode221</title>
      <path
         fill="none"
         stroke="black"
         d="M391.488,-406.863C386.19,-392.501 376.033,-370.626 360,-358 337.458,-340.247 321.651,-356.246 298,-340 285.197,-331.205 273.968,-318.802 264.793,-306.425"
         id="path178" />
      <polygon
         fill="black"
         stroke="black"
         points="267.404,-304.054 258.776,-297.905 261.686,-308.092 267.404,-304.054"
         id="polygon180" />
      <text
         text-anchor="middle"
         x="324.5"
         y="-328.3"
         font-family="Times New Roman,serif"
         font-size="14.00"
         id="text182">condition</text>
    </g>
    <!-- nodenode222 -->
    <g
       id="node11"
       class="node">
      <title
         id="title185">nodenode222</title>
      <ellipse
         fill="none"
         stroke="black"
         cx="326"
         cy="-260"
         rx="26.4705"
         ry="26.7961"
         id="ellipse187"
         d="m 352.4705,-260 c 0,14.79908 -11.85125,26.7961 -26.4705,26.7961 -14.61925,0 -26.4705,-11.99702 -26.4705,-26.7961 0,-14.79908 11.85125,-26.7961 26.4705,-26.7961 14.61925,0 26.4705,11.99702 26.4705,26.7961 z"
         style="fill:#d38d5f;fill-opacity:1" />
      <text
         text-anchor="middle"
         x="326"
         y="-256.3"
         font-family="Times New Roman,serif"
         font-size="14.00"
         id="text189">right</text>
    </g>
    <!-- nodenode22&#45;&gt;nodenode222 -->
    <g
       id="edge8"
       class="edge">
      <title
         id="title192">nodenode22-&gt;nodenode222</title>
      <path
         fill="none"
         stroke="black"
         d="M390.152,-407.634C379.31,-382.85 355.796,-329.106 340.448,-294.025"
         id="path194" />
      <polygon
         fill="black"
         stroke="black"
         points="343.568,-292.423 336.353,-284.664 337.155,-295.229 343.568,-292.423"
         id="polygon196" />
      <text
         text-anchor="middle"
         x="371"
         y="-328.3"
         font-family="Times New Roman,serif"
         font-size="14.00"
         id="text198">then</text>
    </g>
    <!-- nodenode223 -->
    <g
       id="node12"
       class="node">
      <title
         id="title201">nodenode223</title>
      <ellipse
         fill="none"
         stroke="black"
         cx="396"
         cy="-260"
         rx="25.0236"
         ry="25.1964"
         id="ellipse203"
         d="m 421.0236,-260 c 0,13.91559 -11.20345,25.1964 -25.0236,25.1964 -13.82015,0 -25.0236,-11.28081 -25.0236,-25.1964 0,-13.91559 11.20345,-25.1964 25.0236,-25.1964 13.82015,0 25.0236,11.28081 25.0236,25.1964 z"
         style="fill:#d38d5f;fill-opacity:1" />
      <text
         text-anchor="middle"
         x="396"
         y="-256.3"
         font-family="Times New Roman,serif"
         font-size="14.00"
         id="text205">wait</text>
    </g>
    <!-- nodenode22&#45;&gt;nodenode223 -->
    <g
       id="edge9"
       class="edge">
      <title
         id="title208">nodenode22-&gt;nodenode223</title>
      <path
         fill="none"
         stroke="black"
         d="M396,-403.877C396,-378.199 396,-329.172 396,-295.786"
         id="path210" />
      <polygon
         fill="black"
         stroke="black"
         points="399.5,-295.546 396,-285.546 392.5,-295.546 399.5,-295.546"
         id="polygon212" />
      <text
         text-anchor="middle"
         x="407"
         y="-328.3"
         font-family="Times New Roman,serif"
         font-size="14.00"
         id="text214">else</text>
    </g>
    <!-- nodenode231 -->
    <g
       id="node14"
       class="node">
      <title
         id="title217">nodenode231</title>
      <ellipse
         fill="none"
         stroke="black"
         cx="485"
         cy="-260"
         rx="46.2191"
         ry="46.2923"
         id="ellipse219"
         d="m 531.2191,-260 c 0,25.56653 -20.693,46.2923 -46.2191,46.2923 -25.5261,0 -46.2191,-20.72577 -46.2191,-46.2923 0,-25.56653 20.693,-46.2923 46.2191,-46.2923 25.5261,0 46.2191,20.72577 46.2191,46.2923 z"
         style="fill:#d38d5f;fill-opacity:1" />
      <text
         text-anchor="middle"
         x="485"
         y="-256.3"
         font-family="Times New Roman,serif"
         font-size="14.00"
         id="text221">longJump</text>
    </g>
    <!-- nodenode23&#45;&gt;nodenode231 -->
    <g
       id="edge11"
       class="edge">
      <title
         id="title224">nodenode23-&gt;nodenode231</title>
      <path
         fill="none"
         stroke="black"
         d="M485,-403.877C485,-383.163 485,-347.254 485,-316.619"
         id="path226" />
      <polygon
         fill="black"
         stroke="black"
         points="488.5,-316.462 485,-306.462 481.5,-316.462 488.5,-316.462"
         id="polygon228" />
    </g>
    <!-- nodenode232 -->
    <g
       id="node15"
       class="node">
      <title
         id="title231">nodenode232</title>
      <ellipse
         fill="none"
         stroke="black"
         cx="571"
         cy="-260"
         rx="22.1473"
         ry="22.1965"
         id="ellipse233"
         d="m 593.1473,-260 c 0,12.25879 -9.91568,22.1965 -22.1473,22.1965 -12.23162,0 -22.1473,-9.93771 -22.1473,-22.1965 0,-12.25879 9.91568,-22.1965 22.1473,-22.1965 12.23162,0 22.1473,9.93771 22.1473,22.1965 z"
         style="fill:#d38d5f;fill-opacity:1" />
      <text
         text-anchor="middle"
         x="571"
         y="-256.3"
         font-family="Times New Roman,serif"
         font-size="14.00"
         id="text235">left</text>
    </g>
    <!-- nodenode23&#45;&gt;nodenode232 -->
    <g
       id="edge12"
       class="edge">
      <title
         id="title238">nodenode23-&gt;nodenode232</title>
      <path
         fill="none"
         stroke="black"
         d="M494.204,-403.877C508.993,-376.362 538.191,-322.039 556.016,-288.877"
         id="path240" />
      <polygon
         fill="black"
         stroke="black"
         points="559.286,-290.187 560.937,-279.721 553.12,-286.872 559.286,-290.187"
         id="polygon242" />
    </g>
    <!-- nodenode31 -->
    <g
       id="node17"
       class="node">
      <title
         id="title245">nodenode31</title>
      <polygon
         fill="none"
         stroke="black"
         points="777,-440 723,-440 723,-404 777,-404 777,-440"
         id="polygon247" />
      <text
         text-anchor="middle"
         x="750"
         y="-418.3"
         font-family="Times New Roman,serif"
         font-size="14.00"
         id="text249">&amp;&amp;</text>
    </g>
    <!-- nodenode3&#45;&gt;nodenode31 -->
    <g
       id="edge17"
       class="edge">
      <title
         id="title252">nodenode3-&gt;nodenode31</title>
      <path
         fill="none"
         stroke="black"
         d="M774.776,-546.674C766.254,-540.479 755.883,-531.183 751,-520 741.402,-498.021 742.173,-470.479 744.747,-450.364"
         id="path254" />
      <polygon
         fill="black"
         stroke="black"
         points="748.232,-450.724 746.259,-440.314 741.31,-449.682 748.232,-450.724"
         id="polygon256" />
      <text
         text-anchor="middle"
         x="777.5"
         y="-508.3"
         font-family="Times New Roman,serif"
         font-size="14.00"
         id="text258">condition</text>
    </g>
    <!-- nodenode32 -->
    <g
       id="node20"
       class="node">
      <title
         id="title261">nodenode32</title>
      <polygon
         fill="none"
         stroke="black"
         points="853,-440 799,-440 799,-404 853,-404 853,-440"
         id="polygon263" />
      <text
         text-anchor="middle"
         x="826"
         y="-418.3"
         font-family="Times New Roman,serif"
         font-size="14.00"
         id="text265">Sub</text>
    </g>
    <!-- nodenode3&#45;&gt;nodenode32 -->
    <g
       id="edge24"
       class="edge">
      <title
         id="title268">nodenode3-&gt;nodenode32</title>
      <path
         fill="none"
         stroke="black"
         d="M794.576,-542.292C797.757,-535.761 801.433,-527.595 804,-520 811.79,-496.949 817.67,-469.887 821.382,-450.212"
         id="path270" />
      <polygon
         fill="black"
         stroke="black"
         points="824.872,-450.579 823.22,-440.114 817.986,-449.326 824.872,-450.579"
         id="polygon272" />
      <text
         text-anchor="middle"
         x="821"
         y="-508.3"
         font-family="Times New Roman,serif"
         font-size="14.00"
         id="text274">then</text>
    </g>
    <!-- nodenode33 -->
    <g
       id="node27"
       class="node">
      <title
         id="title277">nodenode33</title>
      <polygon
         fill="none"
         stroke="black"
         points="1013,-440 959,-440 959,-404 1013,-404 1013,-440"
         id="polygon279" />
      <text
         text-anchor="middle"
         x="986"
         y="-418.3"
         font-family="Times New Roman,serif"
         font-size="14.00"
         id="text281">Sub</text>
    </g>
    <!-- nodenode3&#45;&gt;nodenode33 -->
    <g
       id="edge27"
       class="edge">
      <title
         id="title284">nodenode3-&gt;nodenode33</title>
      <path
         fill="none"
         stroke="black"
         d="M800.991,-546.339C831.238,-526.175 907.175,-475.55 951.796,-445.803"
         id="path286" />
      <polygon
         fill="black"
         stroke="black"
         points="953.901,-448.606 960.28,-440.147 950.018,-442.782 953.901,-448.606"
         id="polygon288" />
      <text
         text-anchor="middle"
         x="875"
         y="-508.3"
         font-family="Times New Roman,serif"
         font-size="14.00"
         id="text290">else</text>
    </g>
    <!-- nodenode311 -->
    <g
       id="node18"
       class="node">
      <title
         id="title293">nodenode311</title>
      <ellipse
         fill="none"
         stroke="black"
         cx="657"
         cy="-260"
         rx="45.244"
         ry="45.4919"
         id="ellipse295"
         d="m 702.244,-260 c 0,25.12448 -20.25643,45.4919 -45.244,45.4919 -24.98757,0 -45.244,-20.36742 -45.244,-45.4919 0,-25.12448 20.25643,-45.4919 45.244,-45.4919 24.98757,0 45.244,20.36742 45.244,45.4919 z"
         style="fill:#ffaaaa;fill-opacity:1" />
      <text
         text-anchor="middle"
         x="657"
         y="-256.3"
         font-family="Times New Roman,serif"
         font-size="14.00"
         id="text297">canShoot</text>
    </g>
    <!-- nodenode31&#45;&gt;nodenode311 -->
    <g
       id="edge15"
       class="edge">
      <title
         id="title300">nodenode31-&gt;nodenode311</title>
      <path
         fill="none"
         stroke="black"
         d="M740.047,-403.877C726.941,-381.329 703.37,-340.776 684.679,-308.62"
         id="path302" />
      <polygon
         fill="black"
         stroke="black"
         points="687.601,-306.682 679.55,-299.795 681.549,-310.2 687.601,-306.682"
         id="polygon304" />
    </g>
    <!-- nodenode312 -->
    <g
       id="node19"
       class="node">
      <title
         id="title307">nodenode312</title>
      <ellipse
         fill="none"
         stroke="black"
         cx="751"
         cy="-260"
         rx="30.3206"
         ry="30.5947"
         id="ellipse309"
         d="m 781.3206,-260 c 0,16.89699 -13.57499,30.5947 -30.3206,30.5947 -16.74561,0 -30.3206,-13.69771 -30.3206,-30.5947 0,-16.89699 13.57499,-30.5947 30.3206,-30.5947 16.74561,0 30.3206,13.69771 30.3206,30.5947 z"
         style="fill:#ffaaaa;fill-opacity:1" />
      <text
         text-anchor="middle"
         x="751"
         y="-256.3"
         font-family="Times New Roman,serif"
         font-size="14.00"
         id="text311">isTall</text>
    </g>
    <!-- nodenode31&#45;&gt;nodenode312 -->
    <g
       id="edge16"
       class="edge">
      <title
         id="title314">nodenode31-&gt;nodenode312</title>
      <path
         fill="none"
         stroke="black"
         d="M750.107,-403.877C750.259,-379.508 750.543,-334.111 750.75,-301.01"
         id="path316" />
      <polygon
         fill="black"
         stroke="black"
         points="754.251,-300.759 750.814,-290.737 747.252,-300.715 754.251,-300.759"
         id="polygon318" />
    </g>
    <!-- nodenode321 -->
    <g
       id="node21"
       class="node">
      <title
         id="title321">nodenode321</title>
      <ellipse
         fill="none"
         stroke="black"
         cx="825"
         cy="-260"
         rx="25.0236"
         ry="25.1964"
         id="ellipse323"
         d="m 850.0236,-260 c 0,13.91559 -11.20345,25.1964 -25.0236,25.1964 -13.82015,0 -25.0236,-11.28081 -25.0236,-25.1964 0,-13.91559 11.20345,-25.1964 25.0236,-25.1964 13.82015,0 25.0236,11.28081 25.0236,25.1964 z"
         style="fill:#d38d5f;fill-opacity:1" />
      <text
         text-anchor="middle"
         x="825"
         y="-256.3"
         font-family="Times New Roman,serif"
         font-size="14.00"
         id="text325">wait</text>
    </g>
    <!-- nodenode32&#45;&gt;nodenode321 -->
    <g
       id="edge18"
       class="edge">
      <title
         id="title328">nodenode32-&gt;nodenode321</title>
      <path
         fill="none"
         stroke="black"
         d="M825.893,-403.877C825.732,-378.199 825.426,-329.172 825.217,-295.786"
         id="path330" />
      <polygon
         fill="black"
         stroke="black"
         points="828.716,-295.524 825.153,-285.546 821.716,-295.567 828.716,-295.524"
         id="polygon332" />
    </g>
    <!-- nodenode322 -->
    <g
       id="node22"
       class="node">
      <title
         id="title335">nodenode322</title>
      <polygon
         fill="none"
         stroke="black"
         points="922,-278 868,-278 868,-242 922,-242 922,-278"
         id="polygon337" />
      <text
         text-anchor="middle"
         x="895"
         y="-256.3"
         font-family="Times New Roman,serif"
         font-size="14.00"
         id="text339">Sub</text>
    </g>
    <!-- nodenode32&#45;&gt;nodenode322 -->
    <g
       id="edge23"
       class="edge">
      <title
         id="title342">nodenode32-&gt;nodenode322</title>
      <path
         fill="none"
         stroke="black"
         d="M833.384,-403.877C845.357,-376.115 869.099,-321.061 883.361,-287.988"
         id="path344" />
      <polygon
         fill="black"
         stroke="black"
         points="886.714,-289.053 887.46,-278.485 880.286,-286.281 886.714,-289.053"
         id="polygon346" />
    </g>
    <!-- nodenode3221 -->
    <g
       id="node23"
       class="node">
      <title
         id="title349">nodenode3221</title>
      <ellipse
         fill="none"
         stroke="black"
         cx="861"
         cy="-153"
         rx="22.6206"
         ry="22.9987"
         id="ellipse351"
         d="m 883.6206,-153 c 0,12.70183 -10.12759,22.9987 -22.6206,22.9987 -12.49301,0 -22.6206,-10.29687 -22.6206,-22.9987 0,-12.70183 10.12759,-22.9987 22.6206,-22.9987 12.49301,0 22.6206,10.29687 22.6206,22.9987 z"
         style="fill:#d38d5f;fill-opacity:1" />
      <text
         text-anchor="middle"
         x="861"
         y="-149.3"
         font-family="Times New Roman,serif"
         font-size="14.00"
         id="text353">run</text>
    </g>
    <!-- nodenode322&#45;&gt;nodenode3221 -->
    <g
       id="edge19"
       class="edge">
      <title
         id="title356">nodenode322-&gt;nodenode3221</title>
      <path
         fill="none"
         stroke="black"
         d="M889.386,-241.661C884.365,-226.158 876.894,-203.083 870.876,-184.499"
         id="path358" />
      <polygon
         fill="black"
         stroke="black"
         points="874.205,-183.42 867.795,-174.984 867.546,-185.576 874.205,-183.42"
         id="polygon360" />
    </g>
    <!-- nodenode3222 -->
    <g
       id="node24"
       class="node">
      <title
         id="title363">nodenode3222</title>
      <polygon
         fill="none"
         stroke="black"
         points="956,-171 902,-171 902,-135 956,-135 956,-171"
         id="polygon365" />
      <text
         text-anchor="middle"
         x="929"
         y="-149.3"
         font-family="Times New Roman,serif"
         font-size="14.00"
         id="text367">Sub</text>
    </g>
    <!-- nodenode322&#45;&gt;nodenode3222 -->
    <g
       id="edge22"
       class="edge">
      <title
         id="title370">nodenode322-&gt;nodenode3222</title>
      <path
         fill="none"
         stroke="black"
         d="M900.614,-241.661C905.986,-225.072 914.165,-199.813 920.366,-180.663"
         id="path372" />
      <polygon
         fill="black"
         stroke="black"
         points="923.739,-181.608 923.49,-171.016 917.08,-179.451 923.739,-181.608"
         id="polygon374" />
    </g>
    <!-- nodenode32221 -->
    <g
       id="node25"
       class="node">
      <title
         id="title377">nodenode32221</title>
      <ellipse
         fill="none"
         stroke="black"
         cx="883"
         cy="-46"
         rx="26.4705"
         ry="26.7961"
         id="ellipse379"
         d="m 909.4705,-46 c 0,14.799078 -11.85125,26.796101 -26.4705,26.796101 -14.61925,0 -26.4705,-11.997023 -26.4705,-26.796101 0,-14.799078 11.85125,-26.796101 26.4705,-26.796101 14.61925,0 26.4705,11.997023 26.4705,26.796101 z"
         style="fill:#d38d5f;fill-opacity:1" />
      <text
         text-anchor="middle"
         x="883"
         y="-42.3"
         font-family="Times New Roman,serif"
         font-size="14.00"
         id="text381">right</text>
    </g>
    <!-- nodenode3222&#45;&gt;nodenode32221 -->
    <g
       id="edge20"
       class="edge">
      <title
         id="title384">nodenode3222-&gt;nodenode32221</title>
      <path
         fill="none"
         stroke="black"
         d="M921.404,-134.661C914.945,-119.917 905.486,-98.3259 897.572,-80.2612"
         id="path386" />
      <polygon
         fill="black"
         stroke="black"
         points="900.581,-78.4091 893.363,-70.654 894.17,-81.2181 900.581,-78.4091"
         id="polygon388" />
    </g>
    <!-- nodenode32222 -->
    <g
       id="node26"
       class="node">
      <title
         id="title391">nodenode32222</title>
      <ellipse
         fill="none"
         stroke="black"
         cx="974"
         cy="-46"
         rx="46.2191"
         ry="46.2923"
         id="ellipse393"
         d="m 1020.2191,-46 c 0,25.566532 -20.693,46.29230118 -46.2191,46.29230118 -25.5261,0 -46.2191,-20.72576918 -46.2191,-46.29230118 0,-25.566532 20.693,-46.292301 46.2191,-46.292301 25.5261,0 46.2191,20.725769 46.2191,46.292301 z"
         style="fill:#d38d5f;fill-opacity:1" />
      <text
         text-anchor="middle"
         x="974"
         y="-42.3"
         font-family="Times New Roman,serif"
         font-size="14.00"
         id="text395">longJump</text>
    </g>
    <!-- nodenode3222&#45;&gt;nodenode32222 -->
    <g
       id="edge21"
       class="edge">
      <title
         id="title398">nodenode3222-&gt;nodenode32222</title>
      <path
         fill="none"
         stroke="black"
         d="M936.431,-134.661C940.73,-124.631 946.387,-111.431 952.002,-98.329"
         id="path400" />
      <polygon
         fill="black"
         stroke="black"
         points="955.341,-99.4226 956.063,-88.8524 948.907,-96.6651 955.341,-99.4226"
         id="polygon402" />
    </g>
    <!-- nodenode331 -->
    <g
       id="node28"
       class="node">
      <title
         id="title405">nodenode331</title>
      <ellipse
         fill="none"
         stroke="black"
         cx="986"
         cy="-260"
         rx="46.2191"
         ry="46.2923"
         id="ellipse407"
         d="m 1032.2191,-260 c 0,25.56653 -20.693,46.2923 -46.2191,46.2923 -25.5261,0 -46.2191,-20.72577 -46.2191,-46.2923 0,-25.56653 20.693,-46.2923 46.2191,-46.2923 25.5261,0 46.2191,20.72577 46.2191,46.2923 z"
         style="fill:#d38d5f;fill-opacity:1" />
      <text
         text-anchor="middle"
         x="986"
         y="-256.3"
         font-family="Times New Roman,serif"
         font-size="14.00"
         id="text409">longJump</text>
    </g>
    <!-- nodenode33&#45;&gt;nodenode331 -->
    <g
       id="edge25"
       class="edge">
      <title
         id="title412">nodenode33-&gt;nodenode331</title>
      <path
         fill="none"
         stroke="black"
         d="M986,-403.877C986,-383.163 986,-347.254 986,-316.619"
         id="path414" />
      <polygon
         fill="black"
         stroke="black"
         points="989.5,-316.462 986,-306.462 982.5,-316.462 989.5,-316.462"
         id="polygon416" />
    </g>
    <!-- nodenode332 -->
    <g
       id="node29"
       class="node">
      <title
         id="title419">nodenode332</title>
      <ellipse
         fill="none"
         stroke="black"
         cx="1072"
         cy="-260"
         rx="22.1473"
         ry="22.1965"
         id="ellipse421"
         d="m 1094.1473,-260 c 0,12.25879 -9.9157,22.1965 -22.1473,22.1965 -12.2316,0 -22.1473,-9.93771 -22.1473,-22.1965 0,-12.25879 9.9157,-22.1965 22.1473,-22.1965 12.2316,0 22.1473,9.93771 22.1473,22.1965 z"
         style="fill:#d38d5f;fill-opacity:1" />
      <text
         text-anchor="middle"
         x="1072"
         y="-256.3"
         font-family="Times New Roman,serif"
         font-size="14.00"
         id="text423">left</text>
    </g>
    <!-- nodenode33&#45;&gt;nodenode332 -->
    <g
       id="edge26"
       class="edge">
      <title
         id="title426">nodenode33-&gt;nodenode332</title>
      <path
         fill="none"
         stroke="black"
         d="M995.204,-403.877C1009.99,-376.362 1039.19,-322.039 1057.02,-288.877"
         id="path428" />
      <polygon
         fill="black"
         stroke="black"
         points="1060.29,-290.187 1061.94,-279.721 1054.12,-286.872 1060.29,-290.187"
         id="polygon430" />
    </g>
  </g>
</svg>
